<svg width="29" height="29" viewBox="0 0 29 29" fill="none" xmlns="http://www.w3.org/2000/svg">
<mask id="path-1-inside-1_109_68" fill="white">
<path fill-rule="evenodd" clip-rule="evenodd" d="M5.8225 17.7522L14.2914 28.6165L29 10.2828L22.184 10.2828L22.184 0.369163L5.6817 0.369161L5.6817 10.2828L1.60278e-06 10.2828L5.6817 17.5716L5.6817 17.7522L5.8225 17.7522Z"/>
</mask>
<path d="M14.2914 28.6165L12.7141 29.8461L14.2689 31.8407L15.8514 29.8681L14.2914 28.6165ZM5.8225 17.7522L7.39987 16.5226L6.79932 15.7522L5.8225 15.7522L5.8225 17.7522ZM29 10.2828L30.56 11.5344L33.1686 8.28284L29 8.28284L29 10.2828ZM22.184 10.2828L20.184 10.2828L20.184 12.2828L22.184 12.2828L22.184 10.2828ZM22.184 0.369163L24.184 0.369163L24.184 -1.63084L22.184 -1.63084L22.184 0.369163ZM5.6817 0.369161L5.6817 -1.63084L3.6817 -1.63084L3.6817 0.369161L5.6817 0.369161ZM5.6817 10.2828L5.6817 12.2828L7.6817 12.2828L7.6817 10.2828L5.6817 10.2828ZM1.60278e-06 10.2828L1.77763e-06 8.28284L-4.0949 8.28284L-1.57737 11.5124L1.60278e-06 10.2828ZM5.6817 17.5716L7.6817 17.5716L7.6817 16.8841L7.25907 16.342L5.6817 17.5716ZM5.6817 17.7522L3.6817 17.7522L3.6817 19.7522L5.6817 19.7522L5.6817 17.7522ZM15.8688 27.3869L7.39987 16.5226L4.24512 18.9818L12.7141 29.8461L15.8688 27.3869ZM27.44 9.0313L12.7314 27.365L15.8514 29.8681L30.56 11.5344L27.44 9.0313ZM22.184 12.2828L29 12.2828L29 8.28284L22.184 8.28284L22.184 12.2828ZM20.184 0.369163L20.184 10.2828L24.184 10.2828L24.184 0.369163L20.184 0.369163ZM5.6817 2.36916L22.184 2.36916L22.184 -1.63084L5.6817 -1.63084L5.6817 2.36916ZM7.6817 10.2828L7.6817 0.369162L3.6817 0.369161L3.6817 10.2828L7.6817 10.2828ZM1.42793e-06 12.2828L5.6817 12.2828L5.6817 8.28284L1.77763e-06 8.28284L1.42793e-06 12.2828ZM7.25907 16.342L1.57738 9.05325L-1.57737 11.5124L4.10432 18.8012L7.25907 16.342ZM7.6817 17.7522L7.6817 17.5716L3.6817 17.5716L3.6817 17.7522L7.6817 17.7522ZM5.8225 15.7522L5.6817 15.7522L5.6817 19.7522L5.8225 19.7522L5.8225 15.7522Z" fill="#00C22B" mask="url(#path-1-inside-1_109_68)"/>
</svg>
