<svg width="29" height="29" viewBox="0 0 29 29" fill="none" xmlns="http://www.w3.org/2000/svg">
<mask id="path-1-inside-1_109_73" fill="white">
<path fill-rule="evenodd" clip-rule="evenodd" d="M23.1775 10.8643L14.7086 -6.10352e-05L0 18.3336H6.81599L6.81599 28.2473L23.3183 28.2473V18.3336H29L23.3183 11.0449V10.8643H23.1775Z"/>
</mask>
<path d="M14.7086 -6.10352e-05L16.2859 -1.22965L14.7311 -3.22423L13.1486 -1.25161L14.7086 -6.10352e-05ZM23.1775 10.8643L21.6001 12.0938L22.2007 12.8643H23.1775V10.8643ZM0 18.3336L-1.56001 17.0821L-4.16863 20.3336H0L0 18.3336ZM6.81599 18.3336H8.81599V16.3336H6.81599L6.81599 18.3336ZM6.81599 28.2473H4.81599V30.2473H6.81599V28.2473ZM23.3183 28.2473V30.2473H25.3183V28.2473H23.3183ZM23.3183 18.3336V16.3336H21.3183V18.3336H23.3183ZM29 18.3336V20.3336H33.0949L30.5774 17.104L29 18.3336ZM23.3183 11.0449L21.3183 11.0449V11.7323L21.7409 12.2745L23.3183 11.0449ZM23.3183 10.8643H25.3183V8.86426H23.3183V10.8643ZM13.1312 1.22953L21.6001 12.0938L24.7549 9.63467L16.2859 -1.22965L13.1312 1.22953ZM1.56001 19.5852L16.2686 1.25149L13.1486 -1.25161L-1.56001 17.0821L1.56001 19.5852ZM6.81599 16.3336H0L0 20.3336H6.81599L6.81599 16.3336ZM8.81599 28.2473L8.81599 18.3336H4.81599L4.81599 28.2473H8.81599ZM23.3183 26.2473L6.81599 26.2473V30.2473L23.3183 30.2473V26.2473ZM21.3183 18.3336V28.2473H25.3183V18.3336H21.3183ZM29 16.3336H23.3183V20.3336H29V16.3336ZM21.7409 12.2745L27.4226 19.5632L30.5774 17.104L24.8957 9.81529L21.7409 12.2745ZM21.3183 10.8643V11.0449L25.3183 11.0449V10.8643L21.3183 10.8643ZM23.1775 12.8643H23.3183V8.86426H23.1775V12.8643Z" fill="#00C22B" mask="url(#path-1-inside-1_109_73)"/>
</svg>
